<svg width="45" height="45" viewBox="0 0 45 45" fill="none" xmlns="http://www.w3.org/2000/svg">
<path d="M9.375 23.925C9.375 21.3788 9.375 20.1056 9.88875 18.9863C10.4044 17.8669 11.37 17.04 13.3031 15.3825L15.1781 13.7756C18.675 10.7813 20.4187 9.28125 22.5 9.28125C24.5813 9.28125 26.3269 10.7794 29.8219 13.7738L31.6969 15.3806C33.6281 17.0381 34.5956 17.865 35.1094 18.9844C35.625 20.1038 35.625 21.3769 35.625 23.9231V31.875C35.625 35.4113 35.625 37.1775 34.5262 38.2762C33.4275 39.375 31.6613 39.375 28.125 39.375H16.875C13.3387 39.375 11.5725 39.375 10.4737 38.2762C9.375 37.1775 9.375 35.4113 9.375 31.875V23.925Z" stroke="#364B44" stroke-width="3.5"/>
<path d="M27.1875 39.375V30C27.1875 29.5027 26.99 29.0258 26.6383 28.6742C26.2867 28.3225 25.8098 28.125 25.3125 28.125H19.6875C19.1902 28.125 18.7133 28.3225 18.3617 28.6742C18.01 29.0258 17.8125 29.5027 17.8125 30V39.375" stroke="#364B44" stroke-width="3.5" stroke-linecap="round" stroke-linejoin="round"/>
</svg>
